
<svg width="120" height="40" viewBox="0 0 120 40" fill="none" xmlns="http://www.w3.org/2000/svg">
  <rect width="120" height="40" rx="6" fill="black"/>
  <path d="M24.9956 20.1551C24.9798 16.9861 27.6242 15.5115 27.7401 15.4447C26.1884 13.1895 23.7567 12.9144 22.8969 12.8954C20.8942 12.6871 18.9678 14.0663 17.9497 14.0663C16.9317 14.0663 15.3641 12.9144 13.6592 12.9522C11.4789 12.99 9.4603 14.2169 8.36829 16.0833C6.1244 19.8896 7.78533 25.5362 9.93326 28.6574C11.0094 30.2131 12.2752 31.954 13.9801 31.8872C15.6532 31.8205 16.2758 30.8623 18.3101 30.8623C20.3286 30.8623 20.9195 31.8872 22.6719 31.8493C24.456 31.8205 25.5321 30.2891 26.5768 28.7241C27.8109 26.9435 28.3071 25.1913 28.3229 25.1056C28.2913 25.0956 24.9956 23.8782 24.9956 20.1551Z" fill="white"/>
  <path d="M22.2111 10.286C23.0709 9.23491 23.6618 7.82695 23.5063 6.40009C22.3176 6.44681 20.8047 7.23304 19.9133 8.26422C19.1164 9.1741 18.4146 10.6488 18.5858 12.0089C19.9291 12.1041 21.3037 11.3369 22.2111 10.286Z" fill="white"/>
  <path d="M49.1698 31.7493H46.9579L45.7688 28.1387H41.3268L40.1851 31.7493H38.0365L42.4148 18.4878H44.7321L49.1698 31.7493ZM45.3904 26.4973L44.1696 22.7841C44.057 22.4423 43.837 21.5887 43.5117 20.2233H43.4781C43.3814 20.6984 43.1772 21.5519 42.8655 22.7841L41.6583 26.4973H45.3904Z" fill="white"/>
  <path d="M61.0253 27.0875C61.0253 28.7005 60.546 29.9724 59.5873 30.9033C58.7277 31.7253 57.7162 32.1362 56.5529 32.1362C55.2996 32.1362 54.3736 31.6989 53.775 30.8243H53.7412V36.1747H51.6769V25.7401C51.6769 24.7985 51.6486 23.8359 51.5927 22.8526H53.4125L53.5411 24.3821H53.5748C54.3105 23.2878 55.386 22.7406 56.8015 22.7406C57.9328 22.7406 58.8758 23.1725 59.6303 24.0364C60.3938 24.9002 60.7696 26.0785 60.7696 27.585V27.0875H61.0253ZM58.9612 27.161C58.9612 26.1993 58.7277 25.4092 58.2528 24.8156C57.7564 24.2013 57.0962 23.8941 56.2645 23.8941C55.6979 23.8941 55.1808 24.0633 54.7134 24.4018C54.254 24.7403 53.9418 25.1882 53.7750 25.7455C53.6864 26.0068 53.64 26.2362 53.64 26.4342V28.0039C53.64 28.7574 53.8427 29.3939 54.2537 29.9086C54.6647 30.4234 55.2209 30.6807 55.9323 30.6807C56.7921 30.6807 57.4692 30.3679 57.9576 29.7479C58.4499 29.1225 58.6953 28.263 58.6953 27.1664L58.9612 27.161Z" fill="white"/>
  <path d="M73.1879 27.0875C73.1879 28.7005 72.7087 29.9724 71.75 30.9033C70.8904 31.7253 69.8789 32.1362 68.7156 32.1362C67.4623 32.1362 66.5363 31.6989 65.9376 30.8243H65.9039V36.1747H63.8395V25.7401C63.8395 24.7985 63.8113 23.8359 63.7554 22.8526H65.5753L65.7039 24.3821H65.7376C66.4733 23.2878 67.5488 22.7406 68.9642 22.7406C70.0955 22.7406 71.0385 23.1725 71.7931 24.0364C72.5483 24.9002 72.924 26.0785 72.924 27.585L73.1879 27.0875ZM71.1239 27.161C71.1239 26.1993 70.8904 25.4092 70.4155 24.8156C69.9146 24.2013 69.2589 23.8941 68.4272 23.8941C67.8605 23.8941 67.3434 24.0633 66.8761 24.4018C66.4011 24.7403 66.1045 25.1882 65.9376 25.7455C65.8489 26.0068 65.8026 26.2362 65.8026 26.4342V28.0039C65.8026 28.7574 66.0054 29.3939 66.4164 29.9086C66.8273 30.4234 67.3882 30.6807 68.095 30.6807C68.9548 30.6807 69.6319 30.3679 70.1203 29.7479C70.6126 29.1225 70.8579 28.263 70.8579 27.1664L71.1239 27.161Z" fill="white"/>
  <path d="M87.2127 28.2462C87.2127 29.3245 86.829 30.1874 86.0559 30.8454C85.2019 31.5578 84.0099 31.9141 82.48 31.9141C81.091 31.9141 79.9539 31.6419 79.0732 31.1028L79.5022 29.8762C80.4486 30.4206 81.5191 30.6981 82.7136 30.6981C83.5713 30.6981 84.2399 30.5183 84.7192 30.1585C85.1985 29.7987 85.435 29.3137 85.435 28.7003C85.435 28.1655 85.2439 27.7275 84.8557 27.3783C84.4753 27.0344 83.8377 26.7015 82.9464 26.3903C80.6348 25.6347 79.4812 24.5136 79.4812 23.0322C79.4812 22.0058 79.8807 21.1654 80.6715 20.5078C81.4623 19.8503 82.5023 19.5227 83.7915 19.5227C84.9674 19.5227 85.9539 19.7314 86.7507 20.1457L86.2778 21.3941C85.5363 20.989 84.686 20.7911 83.7211 20.7911C82.9184 20.7911 82.2895 20.971 81.8295 21.3308C81.4454 21.6424 81.249 22.023 81.249 22.4773C81.249 23.0014 81.4568 23.4288 81.8617 23.7458C82.2237 24.0418 82.9016 24.3716 83.8896 24.729C85.0824 25.182 85.9464 25.6873 86.4787 26.2342C87.0054 26.7758 87.2671 27.4447 87.2671 28.2462H87.2127Z" fill="white"/>
  <path d="M93.5892 24.0283H91.3378V28.5795C91.3378 29.6581 91.7337 30.1983 92.5279 30.1983C92.8903 30.1983 93.1883 30.1625 93.4167 30.0966L93.4809 31.3886C93.1467 31.5165 92.6917 31.5794 92.1216 31.5794C91.4181 31.5794 90.8757 31.3549 90.4953 30.9058C90.1149 30.4568 89.9246 29.6794 89.9246 28.5687V24.0229H88.5908V22.8531H89.9246V21.1932L91.3378 20.668V22.8531H93.5892V24.0283Z" fill="white"/>
  <path d="M105.222 27.1175C105.222 28.5144 104.788 29.6475 103.913 30.5154C102.997 31.4162 101.794 31.8671 100.289 31.8671C98.8406 31.8671 97.6803 31.4325 96.7887 30.5694C95.9006 29.7063 95.453 28.6059 95.453 27.2738C95.453 25.8715 95.8983 24.7332 96.7775 23.8588C97.6627 22.9845 98.8519 22.5469 100.344 22.5469C101.792 22.5469 102.963 22.9816 103.869 23.8448C104.761 24.6917 105.222 25.7867 105.222 27.1175ZM103.12 27.1772C103.12 26.2655 102.92 25.49 102.51 24.8593C102.031 24.0904 101.351 23.7088 100.478 23.7088C99.5717 23.7088 98.8798 24.0904 98.4006 24.8593C97.9911 25.49 97.7903 26.2816 97.7903 27.2198C97.7903 28.1315 97.9911 28.9069 98.4006 29.5377C98.8892 30.3066 99.5772 30.6882 100.461 30.6882C101.317 30.6882 102.002 30.2982 102.493 29.5269C102.909 28.8852 103.12 28.1044 103.12 27.1772Z" fill="white"/>
  <path d="M112.324 24.3341C112.093 24.2951 111.838 24.2755 111.57 24.2755C110.782 24.2755 110.184 24.5408 109.766 25.0656C109.401 25.5307 109.218 26.1223 109.218 26.8374V31.7526H107.153V25.5902C107.153 24.649 107.137 23.7863 107.09 23.0031H108.961L109.038 24.6275H109.089C109.331 24.1189 109.702 23.7049 110.184 23.3934C110.665 23.0926 111.185 22.9401 111.744 22.9401C111.965 22.9401 112.161 22.9564 112.33 22.9918L112.324 24.3341Z" fill="white"/>
</svg>
