
<svg width="135" height="40" viewBox="0 0 135 40" fill="none" xmlns="http://www.w3.org/2000/svg">
  <rect width="135" height="40" rx="5" fill="black"/>
  <path d="M47.4161 10.2422H43.7061V29.8481H47.4161V10.2422Z" fill="white"/>
  <path d="M64.0206 19.0481L59.7387 10.2422H55.6553L61.9243 22.3309L61.7232 22.6999C61.2102 23.7052 60.4546 24.1371 59.4287 24.1371C58.9473 24.1371 58.4245 24.022 57.8602 23.7947L57.2959 27.205C58.1023 27.4534 58.9515 27.5891 59.8051 27.5891C62.4889 27.5891 64.365 26.2212 65.7286 23.0725L72.4321 10.2422H68.5499L64.0206 19.0481Z" fill="white"/>
  <path fill-rule="evenodd" clip-rule="evenodd" d="M52.985 20.0426C52.985 22.6536 54.9028 24.3418 57.7411 24.3418C58.6478 24.3418 59.4368 24.162 60.1305 23.8038V20.1788L57.4995 20.9429L57.0602 18.196L62.9845 16.6682V25.9464C61.1496 27.1504 59.1707 27.7539 57.0306 27.7539C52.0783 27.7539 49.1039 24.7545 49.1039 20.0115C49.1039 15.3511 52.0166 12.2534 56.8296 12.2534C58.7052 12.2534 60.3057 12.8258 61.5471 13.9482L59.5271 16.7426C58.7557 16.0402 57.8491 15.6894 56.8296 15.6894C54.5862 15.6894 52.985 17.3779 52.985 20.0426Z" fill="white"/>
  <path d="M83.6677 24.1336V13.9615H86.4347V14.7256C87.2818 13.6792 88.5854 13.0166 90.2381 13.0166C91.7687 13.0166 93.0106 13.6066 93.9586 14.7866C94.9066 15.9666 95.3807 17.4528 95.3807 19.2453C95.3807 21.0379 94.9066 22.5395 93.9586 23.7506C93.0106 24.9617 91.7687 25.5672 90.2381 25.5672C88.5854 25.5672 87.2818 24.9047 86.4347 23.8582V28.3671H86.0832C85.8825 28.3671 85.7025 28.2943 85.5432 28.149C85.3838 28.0037 85.3041 27.8167 85.3041 27.5879V24.1336H83.6677ZM92.5091 19.2453C92.5091 18.0033 92.2274 16.9932 91.6639 16.2153C91.1004 15.4375 90.3502 15.0485 89.4133 15.0485C88.4765 15.0485 87.7151 15.4375 87.129 16.2153C86.5428 16.9932 86.2498 18.0033 86.2498 19.2453C86.2498 20.4876 86.5428 21.4788 87.129 22.2189C87.7151 22.959 88.4765 23.329 89.4133 23.329C90.3502 23.329 91.1004 22.959 91.6639 22.2189C92.2274 21.4788 92.5091 20.4876 92.5091 19.2453Z" fill="white"/>
  <path d="M104.743 25.5672C103.07 25.5672 101.727 24.9684 100.715 23.7707C99.7026 22.5731 99.1966 21.0606 99.1966 19.2331C99.1966 17.4056 99.7026 15.8904 100.715 14.6875C101.727 13.4846 103.07 12.8831 104.743 12.8831C106.416 12.8831 107.759 13.4846 108.771 14.6875C109.783 15.8904 110.289 17.4056 110.289 19.2331C110.289 21.0606 109.783 22.5731 108.771 23.7707C107.759 24.9684 106.416 25.5672 104.743 25.5672ZM104.743 23.423C105.68 23.423 106.429 23.0518 106.993 22.3095C107.556 21.5671 107.838 20.5413 107.838 19.2331C107.838 17.9249 107.556 16.8991 106.993 16.1568C106.429 15.4144 105.68 15.0433 104.743 15.0433C103.806 15.0433 103.059 15.4144 102.498 16.1568C101.938 16.8991 101.658 17.9249 101.658 19.2331C101.658 20.5413 101.938 21.5671 102.498 22.3095C103.059 23.0518 103.806 23.423 104.743 23.423Z" fill="white"/>
  <path d="M118.823 25.5672C117.087 25.5672 115.742 24.9617 114.783 23.7506C113.825 22.5395 113.347 21.0379 113.347 19.2453C113.347 17.4578 113.825 15.9666 114.783 14.7718C115.742 13.5771 117.087 12.9797 118.823 12.9797C119.943 12.9797 120.909 13.2667 121.723 13.8408C122.538 14.4148 123.123 15.2031 123.475 16.2057L123.087 16.3839C123.055 16.399 123.028 16.4067 123.006 16.4067C122.925 16.4067 122.82 16.3313 122.693 16.1808C122.403 15.8394 121.971 15.5308 121.396 15.245C120.821 14.9592 120.218 14.8164 119.592 14.8164C118.377 14.8164 117.443 15.2329 116.787 16.0659C116.13 16.8989 115.802 17.9701 115.802 19.2794C115.802 20.6038 116.132 21.6736 116.792 22.4886C117.452 23.3037 118.419 23.7112 119.695 23.7112C120.288 23.7112 120.856 23.5719 121.396 23.2934C121.936 23.0148 122.317 22.6963 122.538 22.3379L122.723 22.1598C122.812 22.0359 122.886 21.974 122.943 21.974C123.001 21.974 123.078 22.008 123.177 22.076L123.889 22.6265C123.383 23.578 122.729 24.2832 121.927 24.7423C121.124 25.2013 120.075 25.5672 118.823 25.5672Z" fill="white"/>
  <path d="M127.25 25.2663V24.1336H127.23V13.9615H130.193V24.1336H127.25V25.2663ZM126.804 10.5677C126.804 10.079 126.973 9.65891 127.31 9.3075C127.646 8.95607 128.05 8.78036 128.518 8.78036C128.987 8.78036 129.391 8.95607 129.731 9.3075C130.071 9.65892 130.241 10.079 130.241 10.5677C130.241 11.0563 130.068 11.4819 129.721 11.8443C129.374 12.2067 128.974 12.3879 128.518 12.3879C128.063 12.3879 127.662 12.2067 127.315 11.8443C126.968 11.4819 126.794 11.0563 126.794 10.5677H126.804Z" fill="white"/>
  <path d="M81.7538 24.1336V13.9615H78.7915V24.1336H81.7538Z" fill="white"/>
  <path d="M82.1991 10.5677C82.1991 10.079 82.0302 9.65892 81.6924 9.3075C81.3547 8.95607 80.9474 8.78036 80.4726 8.78036C80.0059 8.78036 79.6046 8.95607 79.2689 9.3075C78.9332 9.65892 78.7643 10.079 78.7643 10.5677C78.7643 11.0563 78.9374 11.4819 79.2836 11.8443C79.6299 12.2067 80.0332 12.3879 80.4932 12.3879C80.9533 12.3879 81.3526 12.2067 81.6914 11.8443C82.0302 11.4819 82.1991 11.0563 82.1991 10.5677Z" fill="white"/>
  <path fill-rule="evenodd" clip-rule="evenodd" d="M13.1664 7.62744C12.9084 7.90711 12.7793 8.32055 12.7793 8.86798V31.1262C12.7793 31.6736 12.9084 32.0871 13.1664 32.3667L13.2574 32.4516L27.5207 18.8562V18.5478L13.2574 4.95239L13.1664 7.62744Z" fill="url(#paint0_linear_310_1142)"/>
  <path fill-rule="evenodd" clip-rule="evenodd" d="M32.1859 23.3407L27.5109 18.8569V18.5482L32.1864 14.0642L32.3017 14.1273L37.7971 17.1889C39.4017 18.1045 39.4017 19.7004 37.7971 20.6166L32.3017 23.678L32.1859 23.3407Z" fill="url(#paint1_linear_310_1142)"/>
  <path fill-rule="evenodd" clip-rule="evenodd" d="M32.3017 23.6776L27.5109 18.9997L13.1664 32.3666C13.7346 32.9352 14.6719 32.9987 15.7287 32.4301L32.3017 23.6776Z" fill="url(#paint2_linear_310_1142)"/>
  <path fill-rule="evenodd" clip-rule="evenodd" d="M32.3017 14.1283L15.7287 5.37708C14.6719 4.80817 13.7346 4.87199 13.1664 5.44088L27.5109 18.9999L32.3017 14.1283Z" fill="url(#paint3_linear_310_1142)"/>
  <defs>
    <linearGradient id="paint0_linear_310_1142" x1="26.1339" y1="30.9829" x2="5.88397" y2="9.86044" gradientUnits="userSpaceOnUse">
      <stop stop-color="#00A0FF"/>
      <stop offset="0.01" stop-color="#00A1FF"/>
      <stop offset="0.26" stop-color="#00BEFF"/>
      <stop offset="0.51" stop-color="#00D2FF"/>
      <stop offset="0.76" stop-color="#00DFFF"/>
      <stop offset="1" stop-color="#00E3FF"/>
    </linearGradient>
    <linearGradient id="paint1_linear_310_1142" x1="39.8956" y1="18.7023" x2="12.3245" y2="18.7023" gradientUnits="userSpaceOnUse">
      <stop stop-color="#FFE000"/>
      <stop offset="0.41" stop-color="#FFBD00"/>
      <stop offset="0.78" stop-color="#FFA500"/>
      <stop offset="1" stop-color="#FF9C00"/>
    </linearGradient>
    <linearGradient id="paint2_linear_310_1142" x1="30.0675" y1="21.2973" x2="1.81166" y2="-8.46866" gradientUnits="userSpaceOnUse">
      <stop stop-color="#FF3A44"/>
      <stop offset="1" stop-color="#C31162"/>
    </linearGradient>
    <linearGradient id="paint3_linear_310_1142" x1="8.30027" y1="39.0444" x2="18.9266" y2="27.8494" gradientUnits="userSpaceOnUse">
      <stop stop-color="#32A071"/>
      <stop offset="0.07" stop-color="#2DA771"/>
      <stop offset="0.48" stop-color="#15CF74"/>
      <stop offset="0.8" stop-color="#06E775"/>
      <stop offset="1" stop-color="#00F076"/>
    </linearGradient>
  </defs>
</svg>
