<svg width="179" height="70" viewBox="0 0 179 70" fill="none" xmlns="http://www.w3.org/2000/svg">
<path d="M2 31.9415C2 26.9487 2 24.5366 2 24.5366H9.60968M2 31.9415C2 35.8846 2 41.4375 2 48.6829C2 65.1024 23.878 68 23.878 68C23.878 68 45.7561 65.4244 45.7561 48.6829C45.7561 41.3786 45.7561 35.8516 45.7561 31.9415M2 31.9415H45.7561M45.7561 31.9415C45.7561 26.8895 45.7561 24.5366 45.7561 24.5366H41.9512M9.60968 24.5366H12.4633M9.60968 24.5366L15.2626 7.79512M33.7072 24.5366H27.3658M33.7072 24.5366L37.3374 13.9122M33.7072 24.5366H38.1463M12.4633 24.5366C12.4633 24.5366 15.317 20.0293 20.0731 20.0293C24.8292 20.0293 27.3658 24.5366 27.3658 24.5366M12.4633 24.5366H27.3658M33.0731 6.89926L39.0975 8.76098L37.3374 13.9122M33.0731 6.89926C33.0731 6.89926 31.4877 9.40488 33.0731 11.9805C34.6585 14.5561 37.3374 13.9122 37.3374 13.9122M33.0731 6.89926L21.9755 3.46978M15.2626 7.79512L17.2194 2L21.9755 3.46978M15.2626 7.79512C15.2626 7.79512 17.5365 8.43902 19.756 7.15122C21.9755 5.86341 21.9755 3.46978 21.9755 3.46978M38.1463 24.5366L42.9024 10.0488M38.1463 24.5366H41.9512M41.9512 24.5366L46.0731 12.3024" stroke="white" stroke-width="2.53659" stroke-linecap="round" stroke-linejoin="round"/>
<path d="M23.878 65.1024C23.878 65.1024 5.17072 62.6705 5.17072 48.8899V34.839H42.5854V48.8899C42.5854 62.9407 23.878 65.1024 23.878 65.1024Z" stroke="white" stroke-width="0.634146" stroke-linecap="round" stroke-linejoin="round" stroke-dasharray="2.54 2.54"/>
<ellipse cx="18.2881" cy="41.0752" rx="2.33683" ry="2.37278" fill="white"/>
<ellipse cx="29.7597" cy="41.0752" rx="2.33683" ry="2.37278" fill="white"/>
<path d="M18.0756 51.2135C18.0756 59.8418 29.5473 59.8418 29.5473 51.2135" stroke="white" stroke-width="3.17073" stroke-linecap="round"/>
<path d="M62.6051 28V7.66H55.2611V2.8H75.5651V7.66H68.0051V28H62.6051ZM84.575 28.36C82.631 28.36 80.891 27.94 79.355 27.1C77.843 26.236 76.643 25.06 75.755 23.572C74.891 22.084 74.459 20.38 74.459 18.46C74.459 16.54 74.891 14.848 75.755 13.384C76.643 11.896 77.843 10.72 79.355 9.856C80.891 8.992 82.631 8.56 84.575 8.56C86.495 8.56 88.211 8.992 89.723 9.856C91.259 10.72 92.459 11.896 93.323 13.384C94.187 14.848 94.619 16.54 94.619 18.46C94.619 20.38 94.187 22.084 93.323 23.572C92.459 25.06 91.259 26.236 89.723 27.1C88.211 27.94 86.495 28.36 84.575 28.36ZM84.575 23.896C85.511 23.896 86.351 23.668 87.095 23.212C87.839 22.732 88.415 22.084 88.823 21.268C89.255 20.428 89.471 19.492 89.471 18.46C89.471 17.404 89.255 16.468 88.823 15.652C88.415 14.812 87.839 14.164 87.095 13.708C86.351 13.228 85.511 12.988 84.575 12.988C83.615 12.988 82.763 13.228 82.019 13.708C81.275 14.188 80.687 14.836 80.255 15.652C79.823 16.468 79.619 17.404 79.643 18.46C79.619 19.492 79.823 20.428 80.255 21.268C80.687 22.084 81.275 22.732 82.019 23.212C82.763 23.668 83.615 23.896 84.575 23.896ZM98.3211 12.016L96.7731 10.108C97.7571 9.676 98.5491 9.16 99.1491 8.56C99.7731 7.96 100.085 7.444 100.085 7.012C100.085 6.724 99.9771 6.46 99.7611 6.22C99.5691 5.956 99.3171 5.728 99.0051 5.536C98.4531 5.104 98.0691 4.72 97.8531 4.384C97.6611 4.024 97.5651 3.64 97.5651 3.232C97.5651 2.536 97.8051 1.984 98.2851 1.576C98.7891 1.168 99.4371 0.963998 100.229 0.963998C100.949 0.963998 101.585 1.156 102.137 1.54C102.713 1.9 103.169 2.416 103.505 3.088C103.841 3.736 104.009 4.492 104.009 5.356C104.009 6.076 103.865 6.784 103.577 7.48C103.289 8.152 102.881 8.788 102.353 9.388C101.849 9.988 101.249 10.516 100.553 10.972C99.8811 11.428 99.1371 11.776 98.3211 12.016Z" fill="white"/>
<path d="M57.3491 64V38.8H68.2931C69.9731 38.8 71.3891 39.052 72.5411 39.556C73.7171 40.036 74.6051 40.744 75.2051 41.68C75.8051 42.616 76.1051 43.732 76.1051 45.028C76.1051 46.468 75.7451 47.668 75.0251 48.628C74.3051 49.588 73.2731 50.248 71.9291 50.608L71.8931 49.888C72.9971 50.152 73.9691 50.584 74.8091 51.184C75.6491 51.784 76.2971 52.528 76.7531 53.416C77.2091 54.304 77.4371 55.312 77.4371 56.44C77.4371 57.688 77.2331 58.792 76.8251 59.752C76.4171 60.688 75.8171 61.468 75.0251 62.092C74.2331 62.716 73.2971 63.196 72.2171 63.532C71.1611 63.844 69.9731 64 68.6531 64H57.3491ZM62.5331 59.32H68.4371C69.2051 59.32 69.8531 59.212 70.3811 58.996C70.9331 58.756 71.3531 58.396 71.6411 57.916C71.9291 57.436 72.0731 56.872 72.0731 56.224C72.0731 55.6 71.9171 55.072 71.6051 54.64C71.2931 54.208 70.8491 53.884 70.2731 53.668C69.7211 53.428 69.0491 53.308 68.2571 53.308H62.5331V59.32ZM62.5331 49.024H67.6451C68.2931 49.024 68.8571 48.904 69.3371 48.664C69.8171 48.424 70.1771 48.1 70.4171 47.692C70.6811 47.284 70.8131 46.804 70.8131 46.252C70.8131 45.364 70.5251 44.68 69.9491 44.2C69.3731 43.72 68.5091 43.48 67.3571 43.48H62.5331V49.024ZM88.7181 64.36C87.1341 64.36 85.7061 63.928 84.4341 63.064C83.1621 62.2 82.1541 61.024 81.4101 59.536C80.6661 58.048 80.2941 56.344 80.2941 54.424C80.2941 52.504 80.6661 50.812 81.4101 49.348C82.1781 47.86 83.2101 46.696 84.5061 45.856C85.8021 44.992 87.2781 44.56 88.9341 44.56C89.8701 44.56 90.7221 44.704 91.4901 44.992C92.2821 45.256 92.9661 45.628 93.5421 46.108C94.1421 46.588 94.6461 47.14 95.0541 47.764C95.4621 48.388 95.7501 49.06 95.9181 49.78L94.8381 49.6V44.956H99.9141V64H94.7661V59.428L95.9181 59.32C95.7261 59.992 95.4141 60.628 94.9821 61.228C94.5501 61.828 94.0101 62.368 93.3621 62.848C92.7381 63.304 92.0301 63.676 91.2381 63.964C90.4461 64.228 89.6061 64.36 88.7181 64.36ZM90.1221 59.932C91.0821 59.932 91.9221 59.704 92.6421 59.248C93.3621 58.792 93.9141 58.156 94.2981 57.34C94.7061 56.5 94.9101 55.528 94.9101 54.424C94.9101 53.344 94.7061 52.396 94.2981 51.58C93.9141 50.764 93.3621 50.128 92.6421 49.672C91.9221 49.192 91.0821 48.952 90.1221 48.952C89.1861 48.952 88.3581 49.192 87.6381 49.672C86.9421 50.128 86.3901 50.764 85.9821 51.58C85.5741 52.396 85.3701 53.344 85.3701 54.424C85.3701 55.528 85.5741 56.5 85.9821 57.34C86.3901 58.156 86.9421 58.792 87.6381 59.248C88.3581 59.704 89.1861 59.932 90.1221 59.932ZM105.039 64V44.956H109.971L110.151 51.076L109.287 49.816C109.575 48.832 110.043 47.944 110.691 47.152C111.339 46.336 112.095 45.7 112.959 45.244C113.847 44.788 114.771 44.56 115.731 44.56C116.139 44.56 116.535 44.596 116.919 44.668C117.303 44.74 117.627 44.824 117.891 44.92L116.523 50.536C116.235 50.392 115.887 50.272 115.479 50.176C115.071 50.056 114.651 49.996 114.219 49.996C113.643 49.996 113.103 50.104 112.599 50.32C112.119 50.512 111.699 50.8 111.339 51.184C110.979 51.544 110.691 51.976 110.475 52.48C110.283 52.984 110.187 53.536 110.187 54.136V64H105.039ZM127.144 64.36C125.56 64.36 124.132 63.928 122.86 63.064C121.588 62.2 120.58 61.024 119.836 59.536C119.092 58.048 118.72 56.344 118.72 54.424C118.72 52.504 119.092 50.812 119.836 49.348C120.604 47.86 121.636 46.696 122.932 45.856C124.228 44.992 125.704 44.56 127.36 44.56C128.296 44.56 129.148 44.704 129.916 44.992C130.708 45.256 131.392 45.628 131.968 46.108C132.568 46.588 133.072 47.14 133.48 47.764C133.888 48.388 134.176 49.06 134.344 49.78L133.264 49.6V44.956H138.34V64H133.192V59.428L134.344 59.32C134.152 59.992 133.84 60.628 133.408 61.228C132.976 61.828 132.436 62.368 131.788 62.848C131.164 63.304 130.456 63.676 129.664 63.964C128.872 64.228 128.032 64.36 127.144 64.36ZM128.548 59.932C129.508 59.932 130.348 59.704 131.068 59.248C131.788 58.792 132.34 58.156 132.724 57.34C133.132 56.5 133.336 55.528 133.336 54.424C133.336 53.344 133.132 52.396 132.724 51.58C132.34 50.764 131.788 50.128 131.068 49.672C130.348 49.192 129.508 48.952 128.548 48.952C127.612 48.952 126.784 49.192 126.064 49.672C125.368 50.128 124.816 50.764 124.408 51.58C124 52.396 123.796 53.344 123.796 54.424C123.796 55.528 124 56.5 124.408 57.34C124.816 58.156 125.368 58.792 126.064 59.248C126.784 59.704 127.612 59.932 128.548 59.932ZM145.301 64V40.132H150.413V64H145.301ZM141.737 49.528V44.956H154.301V49.528H141.737ZM166.313 64.36C164.369 64.36 162.629 63.94 161.093 63.1C159.581 62.236 158.381 61.06 157.493 59.572C156.629 58.084 156.197 56.38 156.197 54.46C156.197 52.54 156.629 50.848 157.493 49.384C158.381 47.896 159.581 46.72 161.093 45.856C162.629 44.992 164.369 44.56 166.313 44.56C168.233 44.56 169.949 44.992 171.461 45.856C172.997 46.72 174.197 47.896 175.061 49.384C175.925 50.848 176.357 52.54 176.357 54.46C176.357 56.38 175.925 58.084 175.061 59.572C174.197 61.06 172.997 62.236 171.461 63.1C169.949 63.94 168.233 64.36 166.313 64.36ZM166.313 59.896C167.249 59.896 168.089 59.668 168.833 59.212C169.577 58.732 170.153 58.084 170.561 57.268C170.993 56.428 171.209 55.492 171.209 54.46C171.209 53.404 170.993 52.468 170.561 51.652C170.153 50.812 169.577 50.164 168.833 49.708C168.089 49.228 167.249 48.988 166.313 48.988C165.353 48.988 164.501 49.228 163.757 49.708C163.013 50.188 162.425 50.836 161.993 51.652C161.561 52.468 161.357 53.404 161.381 54.46C161.357 55.492 161.561 56.428 161.993 57.268C162.425 58.084 163.013 58.732 163.757 59.212C164.501 59.668 165.353 59.896 166.313 59.896Z" fill="white"/>
</svg>
